<svg width="28" height="28" viewBox="0 0 34 34" fill="none" xmlns="http://www.w3.org/2000/svg">
<path d="M10.1575 15.1667L17 16.9999L23.8425 18.833L30.6843 20.6662C32.3404 14.486 29.6423 8.16413 24.4701 4.95821C23.2895 4.22746 22.0078 3.67424 20.6663 3.3163C19.1265 2.90159 17.5277 2.75024 15.9375 2.86863C10.1029 3.3078 4.91582 7.36088 3.31641 13.3328L10.1582 15.166L10.1575 15.1667Z" stroke="#004678" stroke-width="3" stroke-linecap="round" stroke-linejoin="round"/>
<path d="M11.5269 15.5328C11.5269 15.5328 12.1013 12.0201 14.3864 8.9658C16.6715 5.91147 20.6665 3.31543 20.6665 3.31543C20.6665 3.31543 22.829 7.56189 23.281 11.3493C23.7329 15.1368 22.4735 18.466 22.4735 18.466M3.31658 13.3334L10.1584 15.1666L17.0002 16.9997M17.0002 16.9997L23.8412 18.8329L30.6837 20.6661M17.0002 16.9997L13.1043 31.1664M2.8335 31.1664H31.1668" stroke="#004678" stroke-width="3" stroke-linecap="round" stroke-linejoin="round"/>
<path d="M15.9375 2.86942C17.5277 2.75057 19.1265 2.90145 20.6663 3.31567C22.0079 3.67407 23.2896 4.22776 24.4701 4.95901" stroke="#004678" stroke-width="3" stroke-linecap="round" stroke-linejoin="round"/>
</svg>
