<svg width="33" height="23" viewBox="0 0 37 27" fill="none" xmlns="http://www.w3.org/2000/svg">
<path d="M2.25 3.75C3.225 4.5625 4.2 5.375 6.3125 5.375C10.375 5.375 10.375 2.125 14.4375 2.125C18.6625 2.125 18.3375 5.375 22.5625 5.375C26.625 5.375 26.625 2.125 30.6875 2.125C32.8 2.125 33.775 2.9375 34.75 3.75M2.25 13.5C3.225 14.3125 4.2 15.125 6.3125 15.125C10.375 15.125 10.375 11.875 14.4375 11.875C18.6625 11.875 18.3375 15.125 22.5625 15.125C26.625 15.125 26.625 11.875 30.6875 11.875C32.8 11.875 33.775 12.6875 34.75 13.5M2.25 23.25C3.225 24.0625 4.2 24.875 6.3125 24.875C10.375 24.875 10.375 21.625 14.4375 21.625C18.6625 21.625 18.3375 24.875 22.5625 24.875C26.625 24.875 26.625 21.625 30.6875 21.625C32.8 21.625 33.775 22.4375 34.75 23.25" stroke="#004678" stroke-width="4" stroke-linecap="round" stroke-linejoin="round"/>
</svg>
